<svg xmlns="http://www.w3.org/2000/svg" viewBox="0 0 64 64" width="64" height="64">
  <defs>
    <linearGradient id="wood" x1="0" x2="0" y1="0" y2="1">
      <stop offset="0" stop-color="#8b5a2b"/>
      <stop offset="1" stop-color="#5a3a1c"/>
    </linearGradient>
    <linearGradient id="flame" x1="0" x2="0" y1="0" y2="1">
      <stop offset="0" stop-color="#ffd36a"/>
      <stop offset="0.6" stop-color="#ff8a2a"/>
      <stop offset="1" stop-color="#d63b2a"/>
    </linearGradient>
  </defs>

  <!-- Handle -->
  <rect x="28" y="22" width="8" height="34" rx="3" fill="url(#wood)"/>
  <path d="M28 30h8" stroke="#3b2714" stroke-width="2" opacity="0.35"/>
  <path d="M28 40h8" stroke="#3b2714" stroke-width="2" opacity="0.35"/>

  <!-- Wrap -->
  <rect x="27" y="24" width="10" height="6" rx="2" fill="#2b2b2b" opacity="0.7"/>

  <!-- Flame -->
  <path d="M32 6c3 5 7 8 7 14 0 6-3.6 11-7 11s-7-5-7-11c0-5 3-8 7-14z" fill="url(#flame)"/>
  <path d="M32 12c2 3 4 5 4 8 0 3-2 6-4 6s-4-3-4-6c0-3 2-5 4-8z" fill="#ffe8a6" opacity="0.9"/>
</svg>
